<svg xmlns="http://www.w3.org/2000/svg" preserveAspectRatio="none" viewBox="0 0 1000.55 194.04"><defs><style>.cls-1{fill:#7f302a;}</style></defs><g id="Layer_3" data-name="Layer 3"><path class="cls-1" d="M978.9,149.14l21.62,6.89c0-.72,0-1.45,0-2.22q-.13-15.52-.17-31L996,119.34,993.52,96.1l6.84-4.93q0-25.83.07-51.67c0-2.88-.14-5.73-.42-8.58L970.7,11.22l-1-7.38C949,5.62,928.26,5.65,907.53,6.26l-13.84,13L881.2,7.53c-4.93.36-9.85.81-14.77,1.38-27.65,3.24-55.36,1.88-83,4.7-19.85,2-40.39,6.61-60,1.38A208.43,208.43,0,0,0,669,8.29H652V29.17L647.78,8.29q-66.84,0-133.68,0l-1.55,7.86L507.2,8.34H433.89l-3,2.43-86.64,3.12L291.91,8.37l-157.72,0L131.76,15l-9.62,6.49-4.64-8H86.13l-1.4-5.89A121.54,121.54,0,0,1,51,0H37.6c-2.69,5.34-3.31,4.77-9.73,15.08L12,15.8,0,17.91V170.15H4.84L9.13,161l2.12,9.17,11.06,2.3v10.31l6.4,9.36c21,.53,42-2.92,63-3h2l6-12.86L103,189.11q44.58-.11,89.14-.08l8.09-6.65,35.17-5.93,36.15,12.49h1c41.15-.13,52.12-.16,93.28-.09l15.64-4.72,23.48,3.31,1.32-15.84,9.35,17.33,17.83-4.64,5.32,4.68q85,.19,169.93.27L623.43,182l45.64,3.44,3.9,3.67q64.54-.24,129.09-1.06l1.61,6,14.24-1.87c15.27-.21,20.05-4.66,35.32-4.95l21.2-7.13h48.14l6.93,5.34,3.17-.08c19.28-.55,38.09-3.27,56.39-11.79a24.37,24.37,0,0,0,6.07-3.85Z"/></g></svg>
